<?xml version="1.0" standalone="no"?><svg xmlns="http://www.w3.org/2000/svg" viewBox="0 0 1440 320"><path fill="#0099ff" fill-opacity="1" d="M0,256L26.7,261.3C53.3,267,107,277,160,277.3C213.3,277,267,267,320,261.3C373.3,256,427,256,480,229.3C533.3,203,587,149,640,154.7C693.3,160,747,224,800,245.3C853.3,267,907,245,960,245.3C1013.3,245,1067,267,1120,256C1173.3,245,1227,203,1280,160C1333.3,117,1387,75,1413,53.3L1440,32L1440,320L1413.3,320C1386.7,320,1333,320,1280,320C1226.7,320,1173,320,1120,320C1066.7,320,1013,320,960,320C906.7,320,853,320,800,320C746.7,320,693,320,640,320C586.7,320,533,320,480,320C426.7,320,373,320,320,320C266.7,320,213,320,160,320C106.7,320,53,320,27,320L0,320Z"></path></svg>